<?xml version="1.0" encoding="UTF-8"?>
<svg version="1.1" xmlns="http://www.w3.org/2000/svg" width="650" height="305">
<path d="M0 0 C0.87454834 0.00523682 1.74909668 0.01047363 2.65014648 0.01586914 C3.59438477 0.0190918 4.53862305 0.02231445 5.51147461 0.02563477 C6.50469727 0.03401367 7.49791992 0.04239258 8.52124023 0.05102539 C9.51833008 0.05553711 10.51541992 0.06004883 11.54272461 0.06469727 C14.01478872 0.07652532 16.48673541 0.0930069 18.95874023 0.11352539 C18.9482666 0.85924805 18.93779297 1.6049707 18.92700195 2.37329102 C18.88515578 5.78666752 18.85932348 9.19998981 18.83374023 12.61352539 C18.81698242 13.78657227 18.80022461 14.95961914 18.78295898 16.16821289 C18.73205968 25.22828913 19.66621814 32.12793154 23.83374023 40.30102539 C24.32616211 41.28458008 24.81858398 42.26813477 25.32592773 43.28149414 C30.16735322 51.67870342 36.99357884 56.75158987 45.95874023 60.11352539 C45.95874023 60.77352539 45.95874023 61.43352539 45.95874023 62.11352539 C46.72057617 62.2952832 47.48241211 62.47704102 48.26733398 62.66430664 C53.03500403 63.82497538 57.72910847 64.96996145 62.33374023 66.67602539 C76.16016587 71.32211941 91.20008845 70.4712402 105.58374023 70.42602539 C106.71580902 70.42486725 107.84787781 70.42370911 109.01425171 70.42251587 C129.81129775 70.38037747 150.47533832 69.78536286 170.79077148 64.86743164 C175.90861995 63.64949729 181.0896939 62.78438432 186.26733398 61.85961914 C189.90589221 61.12420684 193.39606748 60.15115876 196.95874023 59.11352539 C199.62313189 58.47428626 202.28774246 57.84836492 204.95874023 57.23852539 C212.01726828 55.60975408 219.00386142 53.79047238 225.98217773 51.84790039 C228.95874023 51.11352539 228.95874023 51.11352539 231.95874023 51.11352539 C231.95874023 50.45352539 231.95874023 49.79352539 231.95874023 49.11352539 C232.94874023 48.85958008 233.93874023 48.60563477 234.95874023 48.34399414 C243.22538075 46.26755867 243.22538075 46.26755867 251.27124023 43.48852539 C255.76439339 41.81311235 260.24593008 40.93440421 264.95874023 40.11352539 C264.95874023 39.45352539 264.95874023 38.79352539 264.95874023 38.11352539 C266.56130131 37.60840295 268.16585815 37.10960912 269.77124023 36.61352539 C271.1112207 36.19586914 271.1112207 36.19586914 272.47827148 35.76977539 C274.95874023 35.11352539 274.95874023 35.11352539 277.95874023 35.11352539 C277.95874023 34.45352539 277.95874023 33.79352539 277.95874023 33.11352539 C278.71155273 32.84540039 279.46436523 32.57727539 280.23999023 32.30102539 C297.99166952 25.75186216 320.2707509 16.63473 333.33569336 2.55126953 C337.87701874 -1.20367177 343.08048321 -0.5084865 348.70092773 -0.37475586 C349.82443634 -0.36768112 350.94794495 -0.36060638 352.10549927 -0.35331726 C355.68226628 -0.32540268 359.257449 -0.26266528 362.83374023 -0.19897461 C365.26340508 -0.17388814 367.69309453 -0.15107559 370.12280273 -0.13061523 C376.06865276 -0.07558553 382.01358329 0.008013 387.95874023 0.11352539 C386.76318573 3.70018892 385.85520364 4.12843468 382.77124023 6.17602539 C379.60433939 8.30855718 376.46508947 10.45728943 373.39233398 12.72290039 C372.78220459 13.17012451 372.1720752 13.61734863 371.54345703 14.078125 C370.34438439 14.95904051 369.14904897 15.84507188 367.95800781 16.73681641 C364.41832584 19.31505314 361.18148977 20.95546832 356.95874023 22.11352539 C356.95874023 22.77352539 356.95874023 23.43352539 356.95874023 24.11352539 C354.33659695 25.61871926 351.71129815 27.11783858 349.08374023 28.61352539 C348.33737305 29.0427832 347.59100586 29.47204102 346.82202148 29.91430664 C346.1065918 30.32036133 345.39116211 30.72641602 344.65405273 31.14477539 C343.66429443 31.71035156 343.66429443 31.71035156 342.65454102 32.28735352 C340.95874023 33.11352539 340.95874023 33.11352539 338.95874023 33.11352539 C338.95874023 33.77352539 338.95874023 34.43352539 338.95874023 35.11352539 C336.54259013 36.32160044 334.12626292 37.52929178 331.70874023 38.73461914 C329.99614108 39.59335139 328.2871091 40.45928287 326.58374023 41.33618164 C321.16841765 44.11352539 321.16841765 44.11352539 318.95874023 44.11352539 C318.95874023 44.77352539 318.95874023 45.43352539 318.95874023 46.11352539 C312.33374023 49.11352539 312.33374023 49.11352539 308.95874023 49.11352539 C308.95874023 49.77352539 308.95874023 50.43352539 308.95874023 51.11352539 C308.1969043 51.42805664 307.43506836 51.74258789 306.65014648 52.06665039 C300.98191755 54.41602867 295.34981137 56.79892391 289.79858398 59.41430664 C287.95874023 60.11352539 287.95874023 60.11352539 284.95874023 60.11352539 C284.95874023 60.77352539 284.95874023 61.43352539 284.95874023 62.11352539 C283.7637793 62.49444336 283.7637793 62.49444336 282.54467773 62.88305664 C281.48506836 63.22723633 280.42545898 63.57141602 279.33374023 63.92602539 C278.28959961 64.2624707 277.24545898 64.59891602 276.16967773 64.94555664 C272.96448545 66.04105441 272.96448545 66.04105441 270.08764648 67.55493164 C266.32099714 69.43120266 262.4859757 70.84333112 258.52124023 72.23852539 C257.79614258 72.5027832 257.07104492 72.76704102 256.32397461 73.03930664 C252.86807373 74.26268934 249.63476585 75.24180404 245.98608398 75.66821289 C244.98706055 75.81516602 243.98803711 75.96211914 242.95874023 76.11352539 C242.62874023 76.77352539 242.29874023 77.43352539 241.95874023 78.11352539 C239.7166812 78.90825266 237.43803295 79.60126068 235.14624023 80.23852539 C233.90229492 80.59172852 232.65834961 80.94493164 231.37670898 81.30883789 C227.95874023 82.11352539 227.95874023 82.11352539 223.95874023 82.11352539 C223.95874023 82.77352539 223.95874023 83.43352539 223.95874023 84.11352539 C221.89792663 84.62043123 219.83500498 85.11877158 217.77124023 85.61352539 C216.62268555 85.89196289 215.47413086 86.17040039 214.29077148 86.45727539 C211.39055194 87.02847924 208.89777638 87.24636318 205.95874023 87.11352539 C205.95874023 87.77352539 205.95874023 88.43352539 205.95874023 89.11352539 C205.27884033 89.2545166 204.59894043 89.39550781 203.8984375 89.54077148 C200.77256947 90.18937117 197.64690399 90.83894203 194.52124023 91.48852539 C193.45196289 91.71024414 192.38268555 91.93196289 191.28100586 92.16040039 C186.61972313 93.12971912 181.96422914 94.10568523 177.32592773 95.17993164 C172.42920225 96.27909438 167.48876963 96.98005574 162.52124023 97.67602539 C160.7512611 97.92415331 158.98170239 98.1753049 157.21264648 98.42993164 C156.44251221 98.53764893 155.67237793 98.64536621 154.87890625 98.75634766 C152.88349864 99.03610388 152.88349864 99.03610388 150.95874023 100.11352539 C135.7428433 102.58445113 120.0977767 102.42890048 104.734375 102.37426758 C101.13256206 102.36348444 97.53124195 102.37426761 93.92944336 102.38696289 C63.05041264 102.4071011 63.05041264 102.4071011 50.95874023 98.11352539 C48.85927883 97.63410008 46.75480087 97.17619976 44.64624023 96.73852539 C38.98970969 95.45236856 34.12957987 93.6945557 28.95874023 91.11352539 C28.02416992 90.69329102 27.08959961 90.27305664 26.12670898 89.84008789 C13.85256761 84.13631488 -0.02909232 74.27046493 -5.04125977 61.11352539 C-5.04125977 60.12352539 -5.04125977 59.13352539 -5.04125977 58.11352539 C-5.70125977 58.11352539 -6.36125977 58.11352539 -7.04125977 58.11352539 C-12.18116413 38.53293734 -10.81374269 19.85414625 -3.04125977 1.11352539 C-2.04125977 0.11352539 -2.04125977 0.11352539 0 0 Z " fill="#000066" transform="translate(55.041259765625,194.886474609375)"/>
<path d="M0 0 C0.9606134 -0.00322266 1.92122681 -0.00644531 2.91094971 -0.00976562 C12.84166892 -0.03013154 22.68575106 0.19723847 32.5703125 1.20703125 C33.71389725 1.32288826 33.71389725 1.32288826 34.88058472 1.44108582 C39.46704169 1.96561056 43.69934076 2.94790204 48.125 4.3125 C50.02316305 4.76388041 51.92138274 5.21509152 53.82177734 5.65698242 C62.33515736 7.65847242 70.27741643 10.38870822 78.125 14.3125 C78.125 14.9725 78.125 15.6325 78.125 16.3125 C78.929375 16.498125 79.73375 16.68375 80.5625 16.875 C87.45995921 19.6581853 93.11130351 24.89228758 98.125 30.3125 C98.84623047 31.06080078 98.84623047 31.06080078 99.58203125 31.82421875 C109.10290558 42.16461138 113.97092492 56.8973034 113.5234375 70.85546875 C111.56178161 87.87571839 111.56178161 87.87571839 107.125 92.3125 C105.29000854 92.55300903 105.29000854 92.55300903 103.04248047 92.53955078 C102.20175995 92.53939972 101.36103943 92.53924866 100.49484253 92.53909302 C99.58646637 92.52877045 98.67809021 92.51844788 97.7421875 92.5078125 C96.34808151 92.50356766 96.34808151 92.50356766 94.92581177 92.49923706 C91.9504115 92.48802069 88.97530965 92.4629136 86 92.4375 C83.98568142 92.42747208 81.97135814 92.4183459 79.95703125 92.41015625 C75.01290544 92.38807661 70.06900335 92.35353693 65.125 92.3125 C65.14071045 91.45084229 65.1564209 90.58918457 65.17260742 89.70141602 C65.22413779 86.46413448 65.26154394 83.22706399 65.28979492 79.98950195 C65.30475938 78.59587672 65.32513851 77.20229756 65.35131836 75.80883789 C65.49658351 67.8705249 65.50077398 60.64849495 62.125 53.3125 C61.54685547 52.04599609 61.54685547 52.04599609 60.95703125 50.75390625 C60.62058594 50.13386719 60.28414063 49.51382813 59.9375 48.875 C58.125 45.3125 58.125 45.3125 58.125 43.3125 C57.465 43.3125 56.805 43.3125 56.125 43.3125 C55.05639005 42.14620548 54.0447002 40.92744068 53.0625 39.6875 C45.27853353 30.56867977 33.88781734 25.0700855 22.44921875 21.98828125 C20.125 21.3125 20.125 21.3125 17.83154297 20.3371582 C-3.64476244 12.20653816 -32.27424417 13.40257716 -54.64990234 16.98291016 C-57.40297924 17.39070627 -60.16175893 17.71761453 -62.92578125 18.04296875 C-64.53694824 18.23379028 -64.53694824 18.23379028 -66.18066406 18.4284668 C-68.30082026 18.67846722 -70.42125186 18.9261467 -72.54199219 19.17114258 C-77.85404763 19.81697853 -82.73675573 20.77626389 -87.875 22.3125 C-92.33661643 23.23748572 -96.82662004 24.01501023 -101.3125 24.8125 C-105.73496222 25.62349594 -109.74283143 26.48437424 -113.875 28.3125 C-115.38601413 28.72528969 -116.907421 29.10221312 -118.4375 29.4375 C-119.18128906 29.60507812 -119.92507813 29.77265625 -120.69140625 29.9453125 C-122.875 30.3125 -122.875 30.3125 -126.875 30.3125 C-126.875 30.9725 -126.875 31.6325 -126.875 32.3125 C-128.0815625 32.63863281 -129.288125 32.96476562 -130.53125 33.30078125 C-132.14588724 33.74199026 -133.76046755 34.18340766 -135.375 34.625 C-136.16648437 34.83833984 -136.95796875 35.05167969 -137.7734375 35.27148438 C-141.67008824 36.34146634 -145.47501126 37.49143577 -149.25 38.9375 C-152.51639326 40.17647675 -155.42191782 40.88086473 -158.875 41.3125 C-158.875 41.9725 -158.875 42.6325 -158.875 43.3125 C-159.78378906 43.59222656 -160.69257813 43.87195312 -161.62890625 44.16015625 C-171.11800408 47.18693515 -179.91903198 50.97963584 -188.875 55.3125 C-191.17848482 56.36140827 -193.49051587 57.38626027 -195.80859375 58.40234375 C-197.32655114 59.07093368 -198.83879788 59.75252778 -200.34765625 60.44140625 C-201.16105469 60.81136719 -201.97445312 61.18132812 -202.8125 61.5625 C-203.54339844 61.89765625 -204.27429688 62.2328125 -205.02734375 62.578125 C-206.875 63.3125 -206.875 63.3125 -208.875 63.3125 C-208.875 63.9725 -208.875 64.6325 -208.875 65.3125 C-209.40867188 65.55895264 -209.94234375 65.80540527 -210.4921875 66.05932617 C-212.95568885 67.20077333 -215.41532593 68.35033012 -217.875 69.5 C-218.71417969 69.88736328 -219.55335938 70.27472656 -220.41796875 70.67382812 C-225.16824987 72.90167315 -229.65283273 75.30042922 -234.06152344 78.14526367 C-236.65473055 79.81437019 -239.32656155 81.33866404 -242 82.875 C-245.23681683 84.74679559 -248.42393629 86.62389714 -251.5 88.75 C-253.875 90.3125 -253.875 90.3125 -255.875 90.3125 C-255.875 90.9725 -255.875 91.6325 -255.875 92.3125 C-260.495 92.3125 -265.115 92.3125 -269.875 92.3125 C-269.875 91.3225 -269.875 90.3325 -269.875 89.3125 C-267.8203125 87.69921875 -267.8203125 87.69921875 -265 86 C-263.99324219 85.38640625 -262.98648438 84.7728125 -261.94921875 84.140625 C-260.93472656 83.53734375 -259.92023438 82.9340625 -258.875 82.3125 C-257.58529297 81.53132813 -257.58529297 81.53132813 -256.26953125 80.734375 C-254.67435555 79.77067585 -253.07596902 78.81226424 -251.47387695 77.86010742 C-249.85885422 76.89837618 -248.2464447 75.93222473 -246.63818359 74.95922852 C-240.01524775 70.95245768 -233.30934665 67.10630696 -226.5625 63.3125 C-225.52416016 62.72210938 -224.48582031 62.13171875 -223.41601562 61.5234375 C-216.06291002 57.38930754 -208.56606788 53.77045922 -200.875 50.3125 C-199.56047669 49.69570006 -198.24752742 49.0755109 -196.9375 48.44921875 C-195.926875 47.97097656 -194.91625 47.49273437 -193.875 47 C-192.328125 46.26330078 -192.328125 46.26330078 -190.75 45.51171875 C-188.09533472 44.40440592 -185.70759755 43.75509337 -182.875 43.3125 C-182.875 42.6525 -182.875 41.9925 -182.875 41.3125 C-181.98039062 40.99796875 -181.08578125 40.6834375 -180.1640625 40.359375 C-172.1177178 37.51141504 -164.14167673 34.55262495 -156.28515625 31.2109375 C-151.41863678 29.17651282 -147.13909204 27.77024713 -141.875 27.3125 C-141.875 26.6525 -141.875 25.9925 -141.875 25.3125 C-140.68003906 24.98636719 -139.48507812 24.66023438 -138.25390625 24.32421875 C-136.64827492 23.88340426 -135.04281714 23.44195729 -133.4375 23 C-132.60943848 22.7721582 -131.78137695 22.54431641 -130.92822266 22.30957031 C-126.8236693 21.16964117 -122.76552124 19.99103056 -118.75 18.5625 C-114.81138797 17.18203598 -111.02659428 16.68991766 -106.875 16.3125 C-106.875 15.6525 -106.875 14.9925 -106.875 14.3125 C-105.8394397 14.10101318 -105.8394397 14.10101318 -104.78295898 13.88525391 C-101.6255611 13.23879079 -98.46903134 12.58818046 -95.3125 11.9375 C-94.22646484 11.71578125 -93.14042969 11.4940625 -92.02148438 11.265625 C-85.45319971 9.92237146 -85.45319971 9.92237146 -78.97265625 8.21875 C-71.78611032 6.11625485 -64.36134488 4.9722116 -56.875 5.3125 C-56.875 4.6525 -56.875 3.9925 -56.875 3.3125 C-37.90500129 1.04045089 -19.10629824 0.0031145 0 0 Z " fill="#D30404" transform="translate(421.875,6.6875)"/>
<path d="M0 0 C2.39117728 0.00537783 4.7821681 0.00001314 7.17333984 -0.00634766 C17.2552191 -0.0117785 27.04577509 0.16333332 36.88818359 2.56787109 C38.52207031 2.96232422 38.52207031 2.96232422 40.18896484 3.36474609 C41.20345703 3.61740234 42.21794922 3.87005859 43.26318359 4.13037109 C44.12298828 4.34177734 44.98279297 4.55318359 45.86865234 4.77099609 C47.66860819 5.21700285 49.46625252 5.67232984 51.26318359 6.13037109 C51.26318359 6.79037109 51.26318359 7.45037109 51.26318359 8.13037109 C52.50068359 8.31599609 53.73818359 8.50162109 55.01318359 8.69287109 C64.22553662 10.75295634 74.15479318 16.87216601 80.26318359 24.13037109 C80.26318359 25.12037109 80.26318359 26.11037109 80.26318359 27.13037109 C78.28318359 26.47037109 76.30318359 25.81037109 74.26318359 25.13037109 C74.26318359 24.47037109 74.26318359 23.81037109 74.26318359 23.13037109 C72.84716646 22.64928835 71.43033923 22.17058969 70.01318359 21.69287109 C69.22427734 21.42603516 68.43537109 21.15919922 67.62255859 20.88427734 C65.51496372 20.21082401 63.41564387 19.63886515 61.26318359 19.13037109 C61.26318359 18.47037109 61.26318359 17.81037109 61.26318359 17.13037109 C59.56415894 16.94607544 59.56415894 16.94607544 57.83081055 16.75805664 C54.80543839 16.3815598 51.87358229 15.85931546 48.90454102 15.16870117 C36.00054005 12.17864018 23.78265706 11.61482495 10.57568359 11.81787109 C8.6232193 11.82940875 6.67074376 11.83918002 4.71826172 11.84716797 C2.83348428 11.86057233 0.94871685 11.8754898 -0.93603516 11.89208984 C-2.2159156 11.90317024 -2.2159156 11.90317024 -3.52165222 11.91447449 C-12.89032471 11.74531708 -12.89032471 11.74531708 -21.73681641 14.13037109 C-23.68275709 14.4671157 -25.63623622 14.76076883 -27.59228516 15.03271484 C-28.77242187 15.2009375 -29.95255859 15.36916016 -31.16845703 15.54248047 C-33.65267121 15.88998625 -36.13704419 16.23635889 -38.62158203 16.58154297 C-44.49633841 17.42079388 -50.08284721 18.33331807 -55.73681641 20.13037109 C-58.2553278 20.76466285 -60.77629697 21.38925535 -63.29931641 22.00537109 C-69.9049357 23.62826664 -76.42631275 25.44598565 -82.94384766 27.39599609 C-85.73681641 28.13037109 -85.73681641 28.13037109 -88.73681641 28.13037109 C-88.73681641 28.79037109 -88.73681641 29.45037109 -88.73681641 30.13037109 C-89.97044922 30.49388672 -89.97044922 30.49388672 -91.22900391 30.86474609 C-99.5240903 33.35518774 -107.43225358 36.24712486 -115.36181641 39.71630859 C-115.99224854 39.99104004 -116.62268066 40.26577148 -117.2722168 40.54882812 C-119.09520047 41.34578389 -120.91415569 42.15193539 -122.73291016 42.95849609 C-125.73681641 44.13037109 -125.73681641 44.13037109 -128.73681641 44.13037109 C-128.73681641 44.79037109 -128.73681641 45.45037109 -128.73681641 46.13037109 C-130.36008511 46.80124229 -131.98549219 47.46694138 -133.61181641 48.13037109 C-134.51673828 48.50162109 -135.42166016 48.87287109 -136.35400391 49.25537109 C-138.73681641 50.13037109 -138.73681641 50.13037109 -140.73681641 50.13037109 C-140.73681641 50.79037109 -140.73681641 51.45037109 -140.73681641 52.13037109 C-141.77580078 52.63826172 -142.81478516 53.14615234 -143.88525391 53.66943359 C-151.0816137 57.21321336 -158.14193166 60.78176658 -164.91650391 65.09912109 C-166.73681641 66.13037109 -166.73681641 66.13037109 -168.73681641 66.13037109 C-168.73681641 66.79037109 -168.73681641 67.45037109 -168.73681641 68.13037109 C-178.30681641 68.13037109 -187.87681641 68.13037109 -197.73681641 68.13037109 C-198.06681641 67.47037109 -198.39681641 66.81037109 -198.73681641 66.13037109 C-196.56257524 63.62999375 -195.00635843 62.69408524 -191.73681641 62.13037109 C-191.73681641 61.47037109 -191.73681641 60.81037109 -191.73681641 60.13037109 C-182.86043475 55.11685923 -173.97126695 50.14823272 -164.86181641 45.56787109 C-164.20310547 45.23400391 -163.54439453 44.90013672 -162.86572266 44.55615234 C-159.8698319 43.06758867 -157.04173368 41.73654939 -153.73681641 41.13037109 C-153.73681641 40.47037109 -153.73681641 39.81037109 -153.73681641 39.13037109 C-152.90279297 38.81583984 -152.06876953 38.50130859 -151.20947266 38.17724609 C-145.22702355 35.90213372 -139.31933226 33.58768526 -133.54150391 30.82958984 C-131.73681641 30.13037109 -131.73681641 30.13037109 -128.73681641 30.13037109 C-128.73681641 29.47037109 -128.73681641 28.81037109 -128.73681641 28.13037109 C-127.74681641 27.80423828 -126.75681641 27.47810547 -125.73681641 27.14208984 C-124.40338194 26.70098918 -123.07005562 26.25956156 -121.73681641 25.81787109 C-121.0478125 25.5900293 -120.35880859 25.3621875 -119.64892578 25.12744141 C-116.14097429 23.9597805 -112.67210672 22.75039759 -109.23681641 21.38037109 C-105.62292314 20.08969493 -102.53216929 19.52572035 -98.73681641 19.13037109 C-98.73681641 18.47037109 -98.73681641 17.81037109 -98.73681641 17.13037109 C-97.69783203 16.87642578 -96.65884766 16.62248047 -95.58837891 16.36083984 C-86.39573997 14.11087231 -86.39573997 14.11087231 -77.29931641 11.50537109 C-70.8026475 9.50723595 -64.59240616 7.77880239 -57.73681641 8.13037109 C-57.73681641 7.47037109 -57.73681641 6.81037109 -57.73681641 6.13037109 C-56.89908691 6.01443604 -56.06135742 5.89850098 -55.19824219 5.77905273 C-52.0930245 5.34761678 -48.98826745 4.91303977 -45.88378906 4.47631836 C-44.53956456 4.28788022 -43.19516331 4.10069849 -41.85058594 3.91479492 C-39.91897412 3.64750546 -37.98803964 3.37533527 -36.05712891 3.10302734 C-34.31326904 2.85951538 -34.31326904 2.85951538 -32.53417969 2.61108398 C-29.79264092 2.27881279 -29.79264092 2.27881279 -27.73681641 1.13037109 C-18.56699408 -0.18018951 -9.24129834 -0.02471444 0 0 Z " fill="#000066" transform="translate(379.73681640625,30.86962890625)"/>
<path d="M0 0 C10.56 0 21.12 0 32 0 C32.66 7.26 33.32 14.52 34 22 C34.66 22 35.32 22 36 22 C36.67154933 23.28913487 37.33708859 24.58140204 38 25.875 C38.37125 26.59429687 38.7425 27.31359375 39.125 28.0546875 C40 30 40 30 40 32 C40.66 32 41.32 32 42 32 C43.68933922 33.6436814 45.35259924 35.3142876 47 37 C69.26533364 55.97783471 102.97912591 54.34473995 130.375 52.1875 C138.20194211 51.51085302 145.78932333 50.50348643 153.4609375 48.7890625 C158.78882144 47.60116785 164.16428536 46.69553043 169.5390625 45.74609375 C172.59990277 45.08625121 175.11368159 44.16511936 178 43 C180.73230866 42.27524293 183.49019924 41.67285804 186.25 41.0625 C191.66384882 39.83480071 196.89795783 38.46995762 202.12890625 36.59375 C205.05648979 35.66474645 207.95120182 35.32434023 211 35 C211 35.99 211 36.98 211 38 C209.96101562 38.38671875 208.92203125 38.7734375 207.8515625 39.171875 C206.4426227 39.69768727 205.03377491 40.22374612 203.625 40.75 C202.51898438 41.16270142 202.51898438 41.16270142 201.390625 41.58374023 C197.56606703 43.01669139 193.76932295 44.48871052 190 46.0625 C179.97413952 50.10654456 169.52469932 53.06238372 158.96484375 55.32421875 C156.87298336 55.8010196 154.79969052 56.36311883 152.74609375 56.984375 C148.23714278 58.2068226 143.74312503 58.89520212 139.125 59.5625 C137.41872405 59.81006236 135.71295728 60.06116906 134.0078125 60.31640625 C133.26160645 60.42412354 132.51540039 60.53184082 131.74658203 60.64282227 C129.97917365 60.83712729 129.97917365 60.83712729 129 62 C104.91784901 65.023623 81.06971436 64.34340047 57 62 C57 61.34 57 60.68 57 60 C56.31035156 59.96261719 55.62070313 59.92523438 54.91015625 59.88671875 C48.46082605 59.43553104 43.00713427 58.33663333 37 56 C35.86175781 55.56816406 34.72351563 55.13632813 33.55078125 54.69140625 C30.36175209 53.47440377 27.17893803 52.24307778 24 51 C24 50.34 24 49.68 24 49 C23.01 48.7215625 23.01 48.7215625 22 48.4375 C12.55360361 43.91110173 4.86835789 34.62130039 1 25 C0.08203637 21.93694823 -0.11712252 19.2080927 -0.09765625 16.015625 C-0.09515869 15.17290039 -0.09266113 14.33017578 -0.09008789 13.46191406 C-0.08098389 12.40198242 -0.07187988 11.34205078 -0.0625 10.25 C-0.041875 6.8675 -0.02125 3.485 0 0 Z " fill="#D70404" transform="translate(90,195)"/>
<path d="M0 0 C1.81242052 -0.02687279 3.62495233 -0.04633715 5.4375 -0.0625 C6.44683594 -0.07410156 7.45617187 -0.08570312 8.49609375 -0.09765625 C11 0 11 0 12 1 C12.78534438 5.31652785 13.36763401 9.65775356 14 14 C14.66 9.38 15.32 4.76 16 0 C19.63 0 23.26 0 27 0 C27.66 4.29 28.32 8.58 29 13 C29.66 8.71 30.32 4.42 31 0 C38.26 0 45.52 0 53 0 C53.99 6.27 54.98 12.54 56 19 C56.66 12.73 57.32 6.46 58 0 C61.96 0 65.92 0 70 0 C69.54520713 4.22957369 69.08625068 8.4586296 68.625 12.6875 C68.43550781 14.45577148 68.43550781 14.45577148 68.2421875 16.25976562 C65.68757313 39.57062171 65.68757313 39.57062171 63 44 C59.47730651 46.66718221 55.47064591 46.22872098 51.25 46.125 C50.55261719 46.11597656 49.85523438 46.10695312 49.13671875 46.09765625 C47.42433042 46.07419888 45.71211996 46.03833104 44 46 C44 44.02 44 42.04 44 40 C45.98 39.505 45.98 39.505 48 39 C47.24646775 32.11509485 45.8770327 25.46976972 44.37304688 18.71484375 C44.19708984 17.90660156 44.02113281 17.09835938 43.83984375 16.265625 C43.67863037 15.54149414 43.51741699 14.81736328 43.35131836 14.07128906 C43 12 43 12 43 8 C42.34 8 41.68 8 41 8 C40.95101562 8.969375 40.90203125 9.93875 40.8515625 10.9375 C40.32030015 20.69407791 39.32576089 30.32065834 38 40 C33.38 40 28.76 40 24 40 C23.34 36.7 22.68 33.4 22 30 C21.01 33.3 20.02 36.6 19 40 C16.85423363 40.02685938 14.70837355 40.04633088 12.5625 40.0625 C11.36753906 40.07410156 10.17257813 40.08570313 8.94140625 40.09765625 C6 40 6 40 5 39 C4.5542053 36.12391126 4.16348585 33.25877847 3.80859375 30.37109375 C3.69902847 29.50686295 3.5894632 28.64263214 3.47657776 27.75221252 C3.12620599 24.9811302 2.78179414 22.20934336 2.4375 19.4375 C2.20156289 17.56310178 1.96523986 15.6887521 1.72851562 13.81445312 C1.14785763 9.21018747 0.57254507 4.60528125 0 0 Z " fill="#FFFFFF" transform="translate(245,119)"/>
<path d="M0 0 C3.96 0 7.92 0 12 0 C12.06058594 1.97484375 12.12117188 3.9496875 12.18359375 5.984375 C12.26800296 8.57292405 12.35265077 11.16146533 12.4375 13.75 C12.47681641 15.05195313 12.51613281 16.35390625 12.55664062 17.6953125 C12.61948242 19.57089844 12.61948242 19.57089844 12.68359375 21.484375 C12.72025146 22.63647461 12.75690918 23.78857422 12.79467773 24.97558594 C12.92400853 28.1954618 12.92400853 28.1954618 14 32 C14.33 21.44 14.66 10.88 15 0 C19.29 0 23.58 0 28 0 C28 13.2 28 26.4 28 40 C23.71 40 19.42 40 15 40 C14.67 39.67 14.34 39.34 14 39 C13.67 41.97 13.34 44.94 13 48 C14.0725 47.773125 15.145 47.54625 16.25 47.3125 C20 47 20 47 22.375 48.125 C25.56023733 51.80027384 25.13649205 56.5842292 25.125 61.25 C25.12886719 62.83554688 25.12886719 62.83554688 25.1328125 64.453125 C25 67 25 67 24 68 C22.35 68 20.7 68 19 68 C18.67 63.05 18.34 58.1 18 53 C16.68 53 15.36 53 14 53 C13.93941406 53.99902344 13.87882812 54.99804688 13.81640625 56.02734375 C13.73261719 57.31769531 13.64882813 58.60804688 13.5625 59.9375 C13.48128906 61.22527344 13.40007812 62.51304687 13.31640625 63.83984375 C13 67 13 67 12 68 C10.35 68 8.7 68 7 68 C7 58.76 7 49.52 7 40 C5.35 39.67 3.7 39.34 2 39 C-0.52561648 35.21157527 -0.25391573 32.21466671 -0.1953125 27.83203125 C-0.1924826 27.03721848 -0.18965271 26.2424057 -0.18673706 25.42350769 C-0.17554705 22.88635162 -0.15044491 20.34954928 -0.125 17.8125 C-0.11496866 16.09180198 -0.10584308 14.37109841 -0.09765625 12.65039062 C-0.07561161 8.43345757 -0.04109006 4.21678875 0 0 Z " fill="#FFFFFF" transform="translate(463,119)"/>
<path d="M0 0 C4.29 0 8.58 0 13 0 C13 15.84 13 31.68 13 48 C7.66666667 48 2.33333333 48 -3 48 C-4.299375 48.061875 -5.59875 48.12375 -6.9375 48.1875 C-9.72088925 48.18238348 -10.90250478 48.04999755 -13.4375 46.75 C-17.67816385 42.00045648 -16.1842686 33.99858178 -16.1875 28.0625 C-16.19974609 26.88236328 -16.21199219 25.70222656 -16.22460938 24.48632812 C-16.22654297 23.34744141 -16.22847656 22.20855469 -16.23046875 21.03515625 C-16.23457764 19.9975415 -16.23868652 18.95992676 -16.24291992 17.89086914 C-15.98607492 14.83428453 -15.41691966 12.71500089 -14 10 C-9.94641576 7.29761051 -7.81689896 7.77062386 -3 8 C-2.34 8.33 -1.68 8.66 -1 9 C-0.67 6.03 -0.34 3.06 0 0 Z M-2 15 C-3.26181095 16.03792772 -3.26181095 16.03792772 -3.11352539 18.31665039 C-3.10828857 19.31688232 -3.10305176 20.31711426 -3.09765625 21.34765625 C-3.09443359 22.42724609 -3.09121094 23.50683594 -3.08789062 24.61914062 C-3.07951172 25.75544922 -3.07113281 26.89175781 -3.0625 28.0625 C-3.05798828 29.20267578 -3.05347656 30.34285156 -3.04882812 31.51757812 C-3.03699747 34.34510351 -3.0205141 37.1725264 -3 40 C-2.01 40 -1.02 40 0 40 C0 32.08 0 24.16 0 16 C-0.66 15.67 -1.32 15.34 -2 15 Z " fill="#FFFFFF" transform="translate(201,111)"/>
<path d="M0 0 C2.97922593 -0.02683987 5.95821295 -0.04676037 8.9375 -0.0625 C10.21270508 -0.07506836 10.21270508 -0.07506836 11.51367188 -0.08789062 C12.32255859 -0.09111328 13.13144531 -0.09433594 13.96484375 -0.09765625 C14.7137085 -0.10289307 15.46257324 -0.10812988 16.23413086 -0.11352539 C18 0 18 0 19 1 C19.29742619 2.46751965 19.53881586 3.94647174 19.75610352 5.42797852 C19.89617325 6.36887833 20.03624298 7.30977814 20.18055725 8.27919006 C20.32851242 9.30209641 20.47646759 10.32500275 20.62890625 11.37890625 C20.78286362 12.42070541 20.93682098 13.46250458 21.09544373 14.53587341 C21.58835597 17.87752273 22.07548434 21.21998672 22.5625 24.5625 C22.8948029 26.82232145 23.22748022 29.08208787 23.56054688 31.34179688 C24.37805072 36.89390109 25.19036683 42.44674281 26 48 C21.38 48 16.76 48 12 48 C12 45.03 12 42.06 12 39 C10.35 39 8.7 39 7 39 C7 41.97 7 44.94 7 48 C2.38 48 -2.24 48 -7 48 C-6.16844019 41.484913 -5.3321627 34.97045587 -4.49145508 28.45654297 C-4.20596769 26.23926303 -3.92178348 24.02181491 -3.63891602 21.80419922 C-3.23273545 18.62162156 -2.82191327 15.43967286 -2.41015625 12.2578125 C-2.28407486 11.26194122 -2.15799347 10.26606995 -2.02809143 9.24002075 C-1.84801796 7.85881546 -1.84801796 7.85881546 -1.66430664 6.44970703 C-1.5599379 5.6369632 -1.45556915 4.82421936 -1.34803772 3.98684692 C-1 2 -1 2 0 0 Z M9 14 C8.34 19.61 7.68 25.22 7 31 C8.32 31 9.64 31 11 31 C10.67 25.39 10.34 19.78 10 14 C9.67 14 9.34 14 9 14 Z " fill="#FFFFFF" transform="translate(22,111)"/>
<path d="M0 0 C4.2117209 1.52493343 5.51986208 2.27979311 8 6 C8.55520331 9.32598207 8.73764183 12.63307009 9 16 C4.71 16 0.42 16 -4 16 C-4.33 13.69 -4.66 11.38 -5 9 C-5.33 9 -5.66 9 -6 9 C-6.92339574 12.1971771 -6.92339574 12.1971771 -6 16 C-3.40033923 18.08060837 -0.72192135 19.64022784 2.203125 21.2265625 C6.10330583 23.69958219 8.51544484 26.11190576 9.6796875 30.6484375 C10.0815529 36.25847844 10.27736236 40.79460032 8 46 C3.32279573 50.52632671 -1.86992561 50.27490692 -8.04296875 50.22265625 C-11.65515632 49.95066855 -14.04628994 49.09868872 -17 47 C-20.12340498 42.31489253 -19.64033226 37.57484993 -20 32 C-15.71 32 -11.42 32 -7 32 C-6.67 34.97 -6.34 37.94 -6 41 C-5.01 40.505 -5.01 40.505 -4 40 C-4.18151184 35.60634585 -4.33526176 33.62009164 -7.6171875 30.55859375 C-8.69226563 29.85863281 -9.76734375 29.15867188 -10.875 28.4375 C-15.50034408 25.40037647 -18.03259285 23.24192726 -20 18 C-20.69682899 13.45694827 -20.53879482 9.33280823 -18.8125 5.0625 C-13.53153812 -0.94687042 -7.4916624 -0.76031756 0 0 Z " fill="#FFFFFF" transform="translate(403,110)"/>
<path d="M0 0 C5.33333333 0 10.66666667 0 16 0 C17.98853612 -0.12625626 19.97707974 -0.25274542 21.96484375 -0.390625 C25.08840088 0.20890612 26.08269871 1.48142947 28 4 C28.3491005 6.8896512 28.4681562 9.3859271 28.390625 12.265625 C28.38496521 13.05902283 28.37930542 13.85242065 28.37347412 14.66986084 C28.35113147 17.19719473 28.30094176 19.72309665 28.25 22.25 C28.22993214 23.96612532 28.21168187 25.68227292 28.1953125 27.3984375 C28.15127395 31.5995078 28.08226326 35.79951135 28 40 C23.71 40 19.42 40 15 40 C14.67 29.44 14.34 18.88 14 8 C13.67 18.56 13.34 29.12 13 40 C8.71 40 4.42 40 0 40 C0 26.8 0 13.6 0 0 Z " fill="#FFFFFF" transform="translate(562,119)"/>
<path d="M0 0 C5.33333333 0 10.66666667 0 16 0 C17.98853612 -0.12625626 19.97707974 -0.25274542 21.96484375 -0.390625 C25.08840088 0.20890612 26.08269871 1.48142947 28 4 C28.3491005 6.8896512 28.4681562 9.3859271 28.390625 12.265625 C28.38496521 13.05902283 28.37930542 13.85242065 28.37347412 14.66986084 C28.35113147 17.19719473 28.30094176 19.72309665 28.25 22.25 C28.22993214 23.96612532 28.21168187 25.68227292 28.1953125 27.3984375 C28.15127395 31.5995078 28.08226326 35.79951135 28 40 C23.71 40 19.42 40 15 40 C14.67 29.44 14.34 18.88 14 8 C13.67 18.56 13.34 29.12 13 40 C8.71 40 4.42 40 0 40 C0 26.8 0 13.6 0 0 Z " fill="#FFFFFF" transform="translate(154,119)"/>
<path d="M0 0 C3.96 0 7.92 0 12 0 C12.06058594 1.97484375 12.12117187 3.9496875 12.18359375 5.984375 C12.26800296 8.57292405 12.35265077 11.16146533 12.4375 13.75 C12.47681641 15.05195313 12.51613281 16.35390625 12.55664062 17.6953125 C12.61948242 19.57089844 12.61948242 19.57089844 12.68359375 21.484375 C12.72025146 22.63647461 12.75690918 23.78857422 12.79467773 24.97558594 C12.92400853 28.1954618 12.92400853 28.1954618 14 32 C14.33 21.44 14.66 10.88 15 0 C19.29 0 23.58 0 28 0 C28 13.2 28 26.4 28 40 C23 40 18 40 13 40 C12.33226562 40.04640625 11.66453125 40.0928125 10.9765625 40.140625 C9.81253906 40.19476563 9.81253906 40.19476563 8.625 40.25 C7.85414063 40.29640625 7.08328125 40.3428125 6.2890625 40.390625 C2.9766331 39.82536401 2.01920794 38.67480855 0 36 C-0.3491005 33.1103488 -0.4681562 30.6140729 -0.390625 27.734375 C-0.38496521 26.94097717 -0.37930542 26.14757935 -0.37347412 25.33013916 C-0.35113147 22.80280527 -0.30094176 20.27690335 -0.25 17.75 C-0.22993214 16.03387468 -0.21168187 14.31772708 -0.1953125 12.6015625 C-0.15127395 8.4004922 -0.08226326 4.20048865 0 0 Z " fill="#FFFFFF" transform="translate(122,119)"/>
<path d="M0 0 C2.4794126 1.9216537 3.14731611 2.80688214 4.22265625 5.72265625 C4.39051947 8.29800298 4.45582999 10.76020018 4.41796875 13.33203125 C4.41513885 14.05884094 4.41230896 14.78565063 4.40939331 15.53448486 C4.39823148 17.84737876 4.37313476 20.15988013 4.34765625 22.47265625 C4.33762126 24.04426523 4.32849631 25.61588029 4.3203125 27.1875 C4.29830529 31.03270247 4.2638034 34.87761289 4.22265625 38.72265625 C-0.77734375 38.72265625 -5.77734375 38.72265625 -10.77734375 38.72265625 C-12.69546875 38.87734375 -12.69546875 38.87734375 -14.65234375 39.03515625 C-17.92091094 38.99897285 -18.82853544 38.69172794 -21.77734375 36.91015625 C-24.69889655 32.25393148 -24.78374298 28.07670014 -23.77734375 22.72265625 C-21.02151499 18.86449598 -18.27100677 17.13495034 -13.77734375 15.72265625 C-17.07734375 15.39265625 -20.37734375 15.06265625 -23.77734375 14.72265625 C-24.0950695 6.62064956 -24.0950695 6.62064956 -21.77734375 2.72265625 C-16.21933503 -2.83535247 -7.0122334 -3.22503562 0 0 Z M-10.77734375 5.72265625 C-11.98295559 6.70533484 -11.98295559 6.70533484 -11.875 8.5703125 C-11.86339844 9.30121094 -11.85179687 10.03210938 -11.83984375 10.78515625 C-11.81921875 12.08453125 -11.79859375 13.38390625 -11.77734375 14.72265625 C-10.78734375 14.39265625 -9.79734375 14.06265625 -8.77734375 13.72265625 C-8.77734375 11.41265625 -8.77734375 9.10265625 -8.77734375 6.72265625 C-9.43734375 6.39265625 -10.09734375 6.06265625 -10.77734375 5.72265625 Z M-9.77734375 21.72265625 C-12.34421742 25.57296675 -11.61023099 27.30835388 -10.77734375 31.72265625 C-10.11734375 31.72265625 -9.45734375 31.72265625 -8.77734375 31.72265625 C-8.77734375 28.42265625 -8.77734375 25.12265625 -8.77734375 21.72265625 C-9.10734375 21.72265625 -9.43734375 21.72265625 -9.77734375 21.72265625 Z " fill="#FFFFFF" transform="translate(239.77734375,120.27734375)"/>
<path d="M0 0 C3.14040155 2.4156935 3.99713673 4.16124285 5.4375 7.875 C5.86367315 11.3628621 5.85677333 14.80260909 5.8125 18.3125 C5.82410156 19.22837891 5.83570313 20.14425781 5.84765625 21.08789062 C5.82324357 26.75570232 5.34542994 30.95437619 2.4375 35.875 C-1.25673774 38.97461728 -4.32114417 39.2832338 -9.0625 39.25 C-10.1659375 39.25773437 -11.269375 39.26546875 -12.40625 39.2734375 C-15.90433427 38.83184765 -17.75795891 37.97840582 -20.5625 35.875 C-24.05813059 30.63155412 -23.77210347 25.17752505 -23.8125 19.0625 C-23.833125 18.29357422 -23.85375 17.52464844 -23.875 16.73242188 C-23.91125177 11.36262913 -23.31316094 6.58060735 -20.5625 1.875 C-14.89066217 -2.96471322 -6.74786655 -2.13090523 0 0 Z M-9.5625 5.875 C-10.82431095 6.91292772 -10.82431095 6.91292772 -10.67602539 9.19165039 C-10.67078857 10.19188232 -10.66555176 11.19211426 -10.66015625 12.22265625 C-10.65693359 13.30224609 -10.65371094 14.38183594 -10.65039062 15.49414062 C-10.64201172 16.63044922 -10.63363281 17.76675781 -10.625 18.9375 C-10.62048828 20.07767578 -10.61597656 21.21785156 -10.61132812 22.39257812 C-10.59949747 25.22010351 -10.5830141 28.0475264 -10.5625 30.875 C-9.5725 30.875 -8.5825 30.875 -7.5625 30.875 C-7.5625 22.955 -7.5625 15.035 -7.5625 6.875 C-8.2225 6.545 -8.8825 6.215 -9.5625 5.875 Z " fill="#FFFFFF" transform="translate(553.5625,120.125)"/>
<path d="M0 0 C3.14040155 2.4156935 3.99713673 4.16124285 5.4375 7.875 C5.86367315 11.3628621 5.85677333 14.80260909 5.8125 18.3125 C5.82410156 19.22837891 5.83570313 20.14425781 5.84765625 21.08789062 C5.82324357 26.75570232 5.34542994 30.95437619 2.4375 35.875 C-1.25673774 38.97461728 -4.32114417 39.2832338 -9.0625 39.25 C-10.1659375 39.25773437 -11.269375 39.26546875 -12.40625 39.2734375 C-15.90433427 38.83184765 -17.75795891 37.97840582 -20.5625 35.875 C-24.05813059 30.63155412 -23.77210347 25.17752505 -23.8125 19.0625 C-23.833125 18.29357422 -23.85375 17.52464844 -23.875 16.73242188 C-23.91125177 11.36262913 -23.31316094 6.58060735 -20.5625 1.875 C-14.89066217 -2.96471322 -6.74786655 -2.13090523 0 0 Z M-9.5625 5.875 C-10.82431095 6.91292772 -10.82431095 6.91292772 -10.67602539 9.19165039 C-10.67078857 10.19188232 -10.66555176 11.19211426 -10.66015625 12.22265625 C-10.65693359 13.30224609 -10.65371094 14.38183594 -10.65039062 15.49414062 C-10.64201172 16.63044922 -10.63363281 17.76675781 -10.625 18.9375 C-10.62048828 20.07767578 -10.61597656 21.21785156 -10.61132812 22.39257812 C-10.59949747 25.22010351 -10.5830141 28.0475264 -10.5625 30.875 C-9.5725 30.875 -8.5825 30.875 -7.5625 30.875 C-7.5625 22.955 -7.5625 15.035 -7.5625 6.875 C-8.2225 6.545 -8.8825 6.215 -9.5625 5.875 Z " fill="#FFFFFF" transform="translate(437.5625,120.125)"/>
<path d="M0 0 C3.96 0 7.92 0 12 0 C12.99 6.27 13.98 12.54 15 19 C15.66 12.73 16.32 6.46 17 0 C20.96 0 24.92 0 29 0 C28.54520713 4.22957369 28.08625068 8.4586296 27.625 12.6875 C27.43550781 14.45577148 27.43550781 14.45577148 27.2421875 16.25976562 C24.68757313 39.57062171 24.68757313 39.57062171 22 44 C18.47730651 46.66718221 14.47064591 46.22872098 10.25 46.125 C9.55261719 46.11597656 8.85523437 46.10695312 8.13671875 46.09765625 C6.42433042 46.07419888 4.71211996 46.03833104 3 46 C3 44.02 3 42.04 3 40 C4.98 39.505 4.98 39.505 7 39 C6.24798211 31.43222502 4.57960473 24.10554618 2.9375 16.6875 C2.38129104 14.17119538 1.82777184 11.65429423 1.27734375 9.13671875 C1.03234131 8.03030029 0.78733887 6.92388184 0.53491211 5.78393555 C0 3 0 3 0 0 Z " fill="#FFFFFF" transform="translate(91,119)"/>
<path d="M0 0 C1.54300781 -0.03867188 1.54300781 -0.03867188 3.1171875 -0.078125 C7.48657798 0.39853578 10.0621613 2.1871613 13.125 5.25 C13.39491906 7.93839385 13.21237357 10.54141936 13.125 13.25 C9.495 13.25 5.865 13.25 2.125 13.25 C1.465 11.6 0.805 9.95 0.125 8.25 C-0.36652438 10.59571804 -0.36652438 10.59571804 0.125 13.25 C2.70496322 15.29363899 2.70496322 15.29363899 6 16.875 C11.9460399 19.98155985 11.9460399 19.98155985 14.125 23.25 C14.80992931 28.39493415 14.94545541 32.83542172 12.3125 37.375 C8.79352619 40.39126326 5.73202386 40.4329373 1.25 40.5 C-0.29300781 40.53867188 -0.29300781 40.53867188 -1.8671875 40.578125 C-6.30160162 40.09437073 -8.91215388 38.44525725 -11.6875 35 C-13.15502792 31.6015143 -13.09052033 28.91384562 -12.875 25.25 C-9.905 24.92 -6.935 24.59 -3.875 24.25 C-4.44089844 23.84007812 -5.00679688 23.43015625 -5.58984375 23.0078125 C-6.32332031 22.46898437 -7.05679688 21.93015625 -7.8125 21.375 C-8.54339844 20.84132812 -9.27429688 20.30765625 -10.02734375 19.7578125 C-12.28374108 17.91643963 -12.80177667 16.92821613 -13.11328125 14.04296875 C-13.31413387 6.99198481 -13.31413387 6.99198481 -11.0625 3.1875 C-7.56544305 0.0901067 -4.51103008 0.06749671 0 0 Z M-0.875 25.25 C-0.875 27.56 -0.875 29.87 -0.875 32.25 C0.115 32.25 1.105 32.25 2.125 32.25 C2.37530977 29.83380177 2.37530977 29.83380177 2.125 27.25 C1.135 26.59 0.145 25.93 -0.875 25.25 Z " fill="#FFFFFF" transform="translate(77.875,118.75)"/>
<path d="M0 0 C9.24 0 18.48 0 28 0 C28 3.3 28 6.6 28 10 C25.69 10 23.38 10 21 10 C21 22.54 21 35.08 21 48 C16.38 48 11.76 48 7 48 C7 35.46 7 22.92 7 10 C4.69 10 2.38 10 0 10 C0 6.7 0 3.4 0 0 Z " fill="#FFFFFF" transform="translate(343,111)"/>
<path d="M0 0 C4.29 0 8.58 0 13 0 C13 15.84 13 31.68 13 48 C11.02 48 9.04 48 7 48 C7 49.65 7 51.3 7 53 C5.02 53 3.04 53 1 53 C0.23747341 49.61339808 -0.12267782 46.49489429 -0.11352539 43.02612305 C-0.11344986 42.06550461 -0.11337433 41.10488617 -0.11329651 40.11515808 C-0.10813522 39.0910231 -0.10297394 38.06688812 -0.09765625 37.01171875 C-0.0962413 35.95338333 -0.09482635 34.89504791 -0.09336853 33.80464172 C-0.08778159 30.43223211 -0.07523144 27.05988946 -0.0625 23.6875 C-0.05748331 21.39778742 -0.0529207 19.10807379 -0.04882812 16.81835938 C-0.03781643 11.21221388 -0.02056072 5.60611828 0 0 Z " fill="#FFFFFF" transform="translate(447,111)"/>
<path d="M0 0 C4.29 0 8.58 0 13 0 C13 1.98 13 3.96 13 6 C14.32 6 15.64 6 17 6 C17 7.98 17 9.96 17 12 C15.68 12 14.36 12 13 12 C13.33 20.58 13.66 29.16 14 38 C15.485 38.495 15.485 38.495 17 39 C17 40.98 17 42.96 17 45 C14.89646505 45.0810206 12.79204048 45.13919907 10.6875 45.1875 C9.51574219 45.22230469 8.34398437 45.25710937 7.13671875 45.29296875 C4 45 4 45 2.14453125 43.67578125 C-0.2621535 40.15200051 -0.11703523 36.92850472 -0.09765625 32.80078125 C-0.09443359 31.59228516 -0.09121094 30.38378906 -0.08789062 29.13867188 C-0.07951172 27.87603516 -0.07113281 26.61339844 -0.0625 25.3125 C-0.05798828 24.03826172 -0.05347656 22.76402344 -0.04882812 21.45117188 C-0.03702873 18.30073436 -0.02056597 15.15039051 0 12 C-0.66 12 -1.32 12 -2 12 C-2 10.02 -2 8.04 -2 6 C-1.34 6 -0.68 6 0 6 C0 4.02 0 2.04 0 0 Z " fill="#FFFFFF" transform="translate(495,114)"/>
<path d="M0 0 C4.29 0 8.58 0 13 0 C13 15.84 13 31.68 13 48 C8.71 48 4.42 48 0 48 C0 32.16 0 16.32 0 0 Z " fill="#FFFFFF" transform="translate(327,111)"/>
<path d="M0 0 C4.29 0 8.58 0 13 0 C13 15.84 13 31.68 13 48 C8.71 48 4.42 48 0 48 C0 32.16 0 16.32 0 0 Z " fill="#FFFFFF" transform="translate(49,111)"/>
<path d="M0 0 C4.29 0 8.58 0 13 0 C13 13.2 13 26.4 13 40 C8.71 40 4.42 40 0 40 C0 26.8 0 13.6 0 0 Z " fill="#FFFFFF" transform="translate(514,119)"/>
<path d="M0 0 C1.98 0 3.96 0 6 0 C7.76892524 4.92772031 8.9318153 9.88634986 10 15 C10.27714844 14.00097656 10.55429687 13.00195312 10.83984375 11.97265625 C11.20555549 10.66922209 11.57145038 9.36583931 11.9375 8.0625 C12.11990234 7.40314453 12.30230469 6.74378906 12.49023438 6.06445312 C13.88671875 1.11328125 13.88671875 1.11328125 15 0 C16.66617115 -0.04063832 18.33388095 -0.042721 20 0 C20.41572266 1.39025391 20.41572266 1.39025391 20.83984375 2.80859375 C21.20207031 4.00613281 21.56429688 5.20367187 21.9375 6.4375 C22.29714844 7.63246094 22.65679687 8.82742187 23.02734375 10.05859375 C23.70889142 12.85867545 23.70889142 12.85867545 25 14 C26.32 9.38 27.64 4.76 29 0 C30.65 0 32.3 0 34 0 C33.39215968 6.03005229 32.16834954 11.61734346 30.5 17.4375 C30.27441406 18.25154297 30.04882812 19.06558594 29.81640625 19.90429688 C28.13649644 25.86350356 28.13649644 25.86350356 27 27 C25.33382885 27.04063832 23.66611905 27.042721 22 27 C20.08451581 22.03715461 18.43020832 17.13009505 17 12 C16.72285156 12.99902344 16.44570313 13.99804688 16.16015625 15.02734375 C15.79444451 16.33077791 15.42854962 17.63416069 15.0625 18.9375 C14.88009766 19.59685547 14.69769531 20.25621094 14.50976562 20.93554688 C13.11328125 25.88671875 13.11328125 25.88671875 12 27 C10.33382885 27.04063832 8.66611905 27.042721 7 27 C4.07866678 18.07288022 1.82256583 9.20948037 0 0 Z " fill="#FFFFFF" transform="translate(411,160)"/>
<path d="M0 0 C3.125 2.3125 3.125 2.3125 5 5 C5 5.99 5 6.98 5 8 C2.1875 8.1875 2.1875 8.1875 -1 8 C-2.625 6.5 -2.625 6.5 -4 5 C-5.32 5 -6.64 5 -8 5 C-8 6.32 -8 7.64 -8 9 C-7.11248047 9.12955078 -7.11248047 9.12955078 -6.20703125 9.26171875 C-2.07544483 9.99637278 0.63797457 10.7465822 4.125 13.1875 C6 16 6 16 6 19.625 C4.65591398 24.16129032 4.65591398 24.16129032 2 26 C-2.56598329 27.52199443 -6.39892714 27.74716734 -10.8125 25.6875 C-13 24 -13 24 -15 21 C-15 20.01 -15 19.02 -15 18 C-12.125 17.8125 -12.125 17.8125 -9 18 C-8.34 18.99 -7.68 19.98 -7 21 C-3.91634129 21.2502157 -3.91634129 21.2502157 -1 21 C-1.16016792 19.02723636 -1.16016792 19.02723636 -2 17 C-3.98436045 15.9691244 -3.98436045 15.9691244 -6.375 15.4375 C-9.75161712 14.5521004 -11.84469531 13.82841247 -14 11 C-14.48258091 7.20829285 -14.51879045 4.91967398 -12.625 1.5625 C-8.54067872 -0.86864362 -4.62317209 -0.88131552 0 0 Z " fill="#FFFFFF" transform="translate(322,160)"/>
<path d="M0 0 C1.65 0 3.3 0 5 0 C5 3.3 5 6.6 5 10 C8.63 10 12.26 10 16 10 C16 6.7 16 3.4 16 0 C17.65 0 19.3 0 21 0 C21 8.91 21 17.82 21 27 C19.35 27 17.7 27 16 27 C16 23.04 16 19.08 16 15 C12.37 15 8.74 15 5 15 C5 18.96 5 22.92 5 27 C3.35 27 1.7 27 0 27 C0 18.09 0 9.18 0 0 Z " fill="#FFFFFF" transform="translate(501,160)"/>
<path d="M0 0 C1.6875 1.125 1.6875 1.125 2.6875 3.125 C2.75944869 6.00870333 2.78041708 8.86739664 2.75 11.75 C2.74548828 12.55179688 2.74097656 13.35359375 2.73632812 14.1796875 C2.72453168 16.16149006 2.70659605 18.14325433 2.6875 20.125 C0.60481407 20.20626087 -1.47878658 20.26430839 -3.5625 20.3125 C-5.30273438 20.36470703 -5.30273438 20.36470703 -7.078125 20.41796875 C-10.56967355 20.10170529 -11.9266457 19.65562701 -14.3125 17.125 C-14.8125 13.625 -14.8125 13.625 -14.3125 10.125 C-12.8125 8.1875 -12.8125 8.1875 -10.3125 7.125 C-7.59190731 6.89655329 -5.0533346 6.98795827 -2.3125 7.125 C-2.6425 6.465 -2.9725 5.805 -3.3125 5.125 C-5.83983235 4.46944881 -5.83983235 4.46944881 -8.3125 4.125 C-8.3125 4.785 -8.3125 5.445 -8.3125 6.125 C-9.9625 6.125 -11.6125 6.125 -13.3125 6.125 C-13.0625 3.75 -13.0625 3.75 -12.3125 1.125 C-8.65988917 -1.71591953 -4.20771257 -1.59210746 0 0 Z M-8.3125 11.125 C-8.3125 12.445 -8.3125 13.765 -8.3125 15.125 C-7.3225 15.455 -6.3325 15.785 -5.3125 16.125 C-4.6525 15.795 -3.9925 15.465 -3.3125 15.125 C-2.66036708 13.10036745 -2.66036708 13.10036745 -2.3125 11.125 C-4.2925 11.125 -6.2725 11.125 -8.3125 11.125 Z " fill="#FFFFFF" transform="translate(560.3125,166.875)"/>
<path d="M0 0 C3.34265205 1.20706879 3.94704566 1.92056849 6 5 C6.07905064 7.33199388 6.08798769 9.66832622 6 12 C2.04 12 -1.92 12 -6 12 C-5.67 12.99 -5.34 13.98 -5 15 C-3.35 15.33 -1.7 15.66 0 16 C0 15.34 0 14.68 0 14 C1.98 14 3.96 14 6 14 C4.75023244 17.65316671 4.32901247 18.78065836 1 21 C-3.21178243 21.46797583 -5.28599114 21.46565795 -8.875 19.125 C-11.73785628 16.26214372 -12.1865146 14.63283238 -12.3125 10.6875 C-12.28413514 7.16458401 -12.06650675 6.10641081 -10.125 3 C-6.72512354 -0.19988373 -4.60930951 -0.27655857 0 0 Z M-5 5 C-5.33 5.99 -5.66 6.98 -6 8 C-4.02 8 -2.04 8 0 8 C0 7.01 0 6.02 0 5 C-1.65 5 -3.3 5 -5 5 Z " fill="#FFFFFF" transform="translate(538,166)"/>
<path d="M0 0 C3.34265205 1.20706879 3.94704566 1.92056849 6 5 C6.07905064 7.33199388 6.08798769 9.66832622 6 12 C2.04 12 -1.92 12 -6 12 C-5.67 12.99 -5.34 13.98 -5 15 C-3.35 15.33 -1.7 15.66 0 16 C0 15.34 0 14.68 0 14 C1.98 14 3.96 14 6 14 C4.75023244 17.65316671 4.32901247 18.78065836 1 21 C-3.21178243 21.46797583 -5.28599114 21.46565795 -8.875 19.125 C-11.73785628 16.26214372 -12.1865146 14.63283238 -12.3125 10.6875 C-12.28413514 7.16458401 -12.06650675 6.10641081 -10.125 3 C-6.72512354 -0.19988373 -4.60930951 -0.27655857 0 0 Z M-5 5 C-5.33 5.99 -5.66 6.98 -6 8 C-4.02 8 -2.04 8 0 8 C0 7.01 0 6.02 0 5 C-1.65 5 -3.3 5 -5 5 Z " fill="#FFFFFF" transform="translate(396,166)"/>
<path d="M0 0 C3.34265205 1.20706879 3.94704566 1.92056849 6 5 C6.07905064 7.33199388 6.08798769 9.66832622 6 12 C2.04 12 -1.92 12 -6 12 C-5.67 12.99 -5.34 13.98 -5 15 C-3.35 15.33 -1.7 15.66 0 16 C0 15.34 0 14.68 0 14 C1.98 14 3.96 14 6 14 C4.75023244 17.65316671 4.32901247 18.78065836 1 21 C-3.21178243 21.46797583 -5.28599114 21.46565795 -8.875 19.125 C-11.73785628 16.26214372 -12.1865146 14.63283238 -12.3125 10.6875 C-12.28413514 7.16458401 -12.06650675 6.10641081 -10.125 3 C-6.72512354 -0.19988373 -4.60930951 -0.27655857 0 0 Z M-5 5 C-5.33 5.99 -5.66 6.98 -6 8 C-4.02 8 -2.04 8 0 8 C0 7.01 0 6.02 0 5 C-1.65 5 -3.3 5 -5 5 Z " fill="#FFFFFF" transform="translate(342,166)"/>
<path d="M0 0 C1.98 0 3.96 0 6 0 C6.99 2.97 7.98 5.94 9 9 C10.32 6.03 11.64 3.06 13 0 C14.98 0 16.96 0 19 0 C18.02327683 2.95914578 17.04320621 5.91717211 16.0625 8.875 C15.78470703 9.71675781 15.50691406 10.55851563 15.22070312 11.42578125 C14.95322266 12.23144531 14.68574219 13.03710938 14.41015625 13.8671875 C14.04096069 14.98262939 14.04096069 14.98262939 13.66430664 16.12060547 C13 18 13 18 12 20 C10.35 20 8.7 20 7 20 C0 4.64974619 0 4.64974619 0 0 Z " fill="#FFFFFF" transform="translate(364,167)"/>
<path d="M0 0 C1.66611905 -0.042721 3.33382885 -0.04063832 5 0 C6 1 6 1 6.0625 3.5625 C6.041875 4.366875 6.02125 5.17125 6 6 C6.99 6 7.98 6 9 6 C9 7.32 9 8.64 9 10 C8.01 10 7.02 10 6 10 C6 13.63 6 17.26 6 21 C6.99 21 7.98 21 9 21 C8.67 22.65 8.34 24.3 8 26 C5.6568787 25.74438677 3.32156597 25.40729228 1 25 C-0.44207941 22.11584117 -0.09394887 19.58278472 -0.0625 16.375 C-0.05347656 15.18648437 -0.04445313 13.99796875 -0.03515625 12.7734375 C-0.02355469 11.85820312 -0.01195312 10.94296875 0 10 C-0.99 10 -1.98 10 -3 10 C-3 8.68 -3 7.36 -3 6 C-2.01 6 -1.02 6 0 6 C0 4.02 0 2.04 0 0 Z " fill="#FFFFFF" transform="translate(583,161)"/>
<path d="M0 0 C1.66611905 -0.042721 3.33382885 -0.04063832 5 0 C6 1 6 1 6.0625 3.5625 C6.041875 4.366875 6.02125 5.17125 6 6 C6.99 6 7.98 6 9 6 C9 7.32 9 8.64 9 10 C8.01 10 7.02 10 6 10 C6 13.63 6 17.26 6 21 C6.99 21 7.98 21 9 21 C8.67 22.65 8.34 24.3 8 26 C5.6568787 25.74438677 3.32156597 25.40729228 1 25 C-0.44207941 22.11584117 -0.09394887 19.58278472 -0.0625 16.375 C-0.05347656 15.18648437 -0.04445313 13.99796875 -0.03515625 12.7734375 C-0.02355469 11.85820312 -0.01195312 10.94296875 0 10 C-0.99 10 -1.98 10 -3 10 C-3 8.68 -3 7.36 -3 6 C-2.01 6 -1.02 6 0 6 C0 4.02 0 2.04 0 0 Z " fill="#FFFFFF" transform="translate(458,161)"/>
<path d="M0 0 C0 1.98 0 3.96 0 6 C-1.65 6.33 -3.3 6.66 -5 7 C-5.06058594 7.92683594 -5.12117187 8.85367188 -5.18359375 9.80859375 C-5.30927734 11.60490234 -5.30927734 11.60490234 -5.4375 13.4375 C-5.51871094 14.63246094 -5.59992187 15.82742187 -5.68359375 17.05859375 C-6 20 -6 20 -7 21 C-8.65 21 -10.3 21 -12 21 C-12 14.4 -12 7.8 -12 1 C-9.69 1 -7.38 1 -5 1 C-3 0 -3 0 0 0 Z " fill="#FFFFFF" transform="translate(579,166)"/>
<path d="M0 0 C0 1.98 0 3.96 0 6 C-1.65 6.33 -3.3 6.66 -5 7 C-5.06058594 7.92683594 -5.12117188 8.85367188 -5.18359375 9.80859375 C-5.30927734 11.60490234 -5.30927734 11.60490234 -5.4375 13.4375 C-5.51871094 14.63246094 -5.59992188 15.82742187 -5.68359375 17.05859375 C-6 20 -6 20 -7 21 C-8.65 21 -10.3 21 -12 21 C-12 14.4 -12 7.8 -12 1 C-9.69 1 -7.38 1 -5 1 C-3 0 -3 0 0 0 Z " fill="#FFFFFF" transform="translate(363,166)"/>
<path d="M0 0 C1.98 0 3.96 0 6 0 C6.02888514 3.14581423 6.04675923 6.29159469 6.0625 9.4375 C6.07087891 10.33533203 6.07925781 11.23316406 6.08789062 12.15820312 C6.09111328 13.01220703 6.09433594 13.86621094 6.09765625 14.74609375 C6.10289307 15.53685303 6.10812988 16.3276123 6.11352539 17.14233398 C6 19 6 19 5 20 C3.35 20 1.7 20 0 20 C0 13.4 0 6.8 0 0 Z " fill="#FFFFFF" transform="translate(448,167)"/>
<path d="M0 0 C4.29 0 8.58 0 13 0 C13 1.98 13 3.96 13 6 C8.71 6 4.42 6 0 6 C0 4.02 0 2.04 0 0 Z " fill="#FFFFFF" transform="translate(514,111)"/>
</svg>
